<?xml version="1.0" standalone="no"?>
<!DOCTYPE svg PUBLIC "-//W3C//DTD SVG 20010904//EN"
 "http://www.w3.org/TR/2001/REC-SVG-20010904/DTD/svg10.dtd">
<svg version="1.0" xmlns="http://www.w3.org/2000/svg"
 width="267.000000pt" height="200.000000pt" viewBox="0 0 267.000000 200.000000"
 preserveAspectRatio="xMidYMid meet">

<g transform="translate(0.000000,200.000000) scale(0.100000,-0.100000)"
fill="#000000" stroke="none">
<path d="M1238 1859 c-248 -26 -482 -167 -626 -375 -107 -155 -164 -388 -141
-576 58 -481 473 -817 948 -768 409 43 718 351 772 770 33 260 -81 555 -286
738 -116 103 -309 191 -450 206 -118 13 -141 13 -217 5z m311 -39 c237 -61
430 -219 545 -447 55 -110 77 -200 83 -344 5 -113 3 -135 -21 -227 -98 -381
-398 -629 -788 -648 -421 -22 -784 262 -869 677 -95 462 202 906 670 1005 93
19 273 12 380 -16z"/>
<path d="M1213 1733 c4 -32 6 -64 7 -70 0 -7 9 -13 20 -13 22 0 26 29 14 103
-5 28 -11 37 -26 37 -19 0 -20 -5 -15 -57z"/>
<path d="M1410 1770 c0 -12 -4 -18 -10 -15 -6 4 -22 -1 -35 -9 -18 -12 -25
-25 -25 -50 0 -38 12 -46 71 -46 l39 0 0 60 c0 33 1 63 3 68 1 4 -8 8 -20 10
-18 3 -23 -2 -23 -18z m0 -70 c0 -11 -7 -20 -15 -20 -8 0 -15 9 -15 20 0 11 7
20 15 20 8 0 15 -9 15 -20z"/>
<path d="M1488 1745 c-16 -35 -2 -43 27 -15 30 28 32 40 5 40 -12 0 -25 -10
-32 -25z"/>
<path d="M1553 1730 c8 -33 -3 -80 -19 -80 -29 0 -12 -27 23 -38 42 -13 52 -9
37 16 -13 20 4 72 23 72 14 0 18 26 6 33 -5 3 -23 8 -42 12 -32 7 -34 6 -28
-15z"/>
<path d="M1103 1723 c-7 -2 -13 -12 -13 -20 0 -11 7 -14 28 -9 l27 7 -22 -16
c-48 -34 -19 -73 42 -57 34 9 42 33 26 75 -9 22 -17 27 -43 26 -18 0 -39 -3
-45 -6z m57 -57 c0 -3 -4 -8 -10 -11 -5 -3 -10 -1 -10 4 0 6 5 11 10 11 6 0
10 -2 10 -4z"/>
<path d="M988 1673 c-34 -17 -34 -27 -5 -75 16 -26 27 -34 36 -28 11 6 11 15
2 40 -13 40 -13 40 -1 40 6 0 16 -11 22 -25 11 -26 48 -35 48 -12 0 24 -40 77
-57 76 -10 -1 -30 -8 -45 -16z"/>
<path d="M1716 1663 c-5 -12 -9 -14 -18 -5 -7 7 -20 12 -29 12 -24 0 -58 -46
-52 -70 5 -17 53 -50 74 -50 12 0 71 109 64 120 -10 16 -32 12 -39 -7z m-26
-40 c0 -5 -4 -15 -10 -23 -11 -18 -25 -7 -17 15 6 15 27 21 27 8z"/>
<path d="M1265 1629 c-76 -7 -194 -45 -259 -83 -114 -67 -224 -202 -269 -331
-32 -89 -39 -130 -39 -225 0 -177 84 -355 221 -473 64 -54 196 -122 259 -132
23 -4 40 -10 38 -13 -2 -4 46 -6 107 -5 165 4 268 38 392 131 157 118 246 300
246 505 0 180 -65 333 -193 453 -140 131 -312 190 -503 173z m95 -41 c-1 -18
-2 -94 -1 -170 1 -131 2 -136 21 -131 11 3 28 18 37 34 10 16 24 29 33 30 13
0 13 1 0 6 -29 10 -40 37 -40 99 0 56 3 65 26 83 16 12 21 21 13 21 -8 0 -22
12 -32 25 -17 23 -17 25 -1 25 10 0 25 -7 35 -16 13 -12 22 -13 38 -5 13 7 22
8 26 1 9 -14 -3 -30 -23 -30 -14 -1 -14 -2 3 -12 11 -6 22 -12 23 -14 2 -1 8
-21 13 -44 11 -49 -3 -115 -28 -128 -11 -7 -12 -11 -3 -17 16 -10 31 7 39 47
7 29 11 33 39 32 30 -2 32 0 32 32 0 32 -2 34 -20 24 -29 -15 -27 16 3 41 43
36 61 15 55 -63 -2 -38 0 -43 22 -49 51 -14 70 -10 70 14 0 13 -6 29 -12 36
-7 8 -1 6 15 -4 17 -11 27 -26 27 -41 0 -13 4 -24 9 -24 5 0 21 -4 34 -9 l24
-9 -18 -84 c-9 -46 -23 -109 -29 -142 -12 -57 -12 -58 -41 -52 -22 4 -29 2
-29 -9 0 -8 -5 -15 -10 -15 -16 0 -24 30 -11 43 6 6 11 22 11 36 1 15 7 44 15
66 8 21 13 41 11 43 -3 2 -106 -62 -134 -83 -1 -1 1 -10 5 -20 6 -17 7 -17 13
-1 3 9 25 28 49 43 41 24 42 24 31 4 -6 -12 -14 -19 -18 -17 -5 3 -14 1 -21
-3 -10 -6 -12 -83 -12 -358 1 -304 -1 -352 -15 -363 -13 -11 -16 -10 -21 9 -4
15 -9 18 -17 12 -6 -6 -18 -6 -25 -2 -10 7 -6 15 18 36 27 25 44 54 24 42 -5
-3 -7 26 -5 64 4 73 -5 86 -33 47 l-16 -23 5 29 c3 16 20 42 38 58 18 16 26
28 18 25 -13 -4 -14 7 -12 65 4 67 3 69 -16 59 -23 -12 -39 -15 -29 -4 7 6
-11 33 -22 33 -3 0 -7 -28 -8 -62 -1 -49 -5 -66 -21 -79 -20 -15 -20 -17 -3
-31 41 -35 33 -161 -12 -177 l-22 -8 22 -7 c39 -12 56 -127 21 -134 -15 -3
-18 4 -18 46 0 33 -5 54 -16 63 -26 21 -46 -15 -42 -76 2 -43 -1 -50 -18 -53
-17 -2 -19 3 -18 60 1 53 5 65 28 84 24 21 24 23 6 29 -24 8 -33 35 -32 99 1
40 6 55 25 71 l23 21 -22 17 c-23 17 -34 62 -26 103 8 43 29 27 34 -27 6 -59
20 -78 43 -59 10 8 15 30 15 65 0 47 3 53 28 66 45 22 48 23 34 7 -21 -26 2
-29 32 -5 19 16 25 27 20 40 -6 17 -7 17 -21 0 -7 -10 -5 0 7 22 11 22 20 57
19 80 l-1 40 -7 -35 c-12 -57 -39 -98 -83 -128 -34 -22 -53 -27 -103 -27 -43
0 -70 6 -89 19 -23 15 -30 16 -37 5 -6 -11 -11 -11 -21 -1 -9 9 -9 12 0 12 28
0 48 35 50 88 2 34 -1 52 -9 52 -6 0 -9 7 -5 15 6 17 -9 21 -19 5 -3 -5 -15
-10 -26 -10 -10 0 -19 -6 -19 -14 0 -9 -7 -12 -19 -9 -24 6 -38 -20 -35 -67 1
-19 -2 -40 -7 -46 -5 -6 -6 -14 -2 -18 4 -3 -3 -15 -15 -26 -16 -16 -22 -32
-22 -66 0 -42 1 -44 20 -34 17 9 50 58 50 75 0 3 -7 5 -15 5 -8 0 -15 5 -15
10 0 6 11 8 28 3 15 -4 37 -7 50 -6 26 1 27 -12 8 -58 -18 -44 -71 -94 -118
-114 -35 -14 -38 -18 -36 -53 l1 -37 4 33 c3 20 11 35 21 39 69 22 113 58 146
118 14 26 16 26 10 5 -4 -14 -7 -34 -6 -45 1 -14 -1 -16 -7 -6 -11 18 -25 -4
-17 -26 5 -13 4 -13 -7 -4 -23 19 -43 -13 -28 -45 14 -32 14 -85 -1 -121 -11
-26 -12 -24 -20 42 -5 38 -12 72 -16 76 -15 15 -52 -10 -52 -36 0 -21 5 -25
31 -25 28 0 30 -2 27 -32 -3 -31 -6 -33 -45 -36 -43 -3 -43 -3 -43 -43 0 -34
-3 -39 -23 -39 -13 0 -28 -5 -35 -12 -9 -9 -12 -6 -12 15 0 25 -2 26 -20 17
-11 -6 -20 -17 -20 -25 0 -8 -7 -15 -15 -15 -22 0 -18 30 8 58 12 14 16 22 8
17 -9 -5 -12 -4 -7 3 4 7 19 13 34 14 15 0 5 4 -23 7 l-49 6 3 49 c3 61 16 96
35 96 11 0 13 -9 9 -40 -5 -35 -3 -40 15 -40 16 0 21 8 24 39 3 38 2 40 -34
50 -20 7 -50 22 -65 35 l-28 24 1 -119 c2 -115 12 -158 35 -143 5 3 9 0 9 -5
0 -17 -10 -13 -47 15 -31 23 -33 29 -33 85 0 58 0 59 -25 53 -33 -8 -32 9 2
34 25 18 26 23 24 93 -2 76 -7 92 -19 72 -5 -8 -12 -9 -22 -2 -13 8 -11 13 9
30 21 17 25 31 29 99 3 52 1 80 -6 80 -6 0 -12 -6 -15 -12 -4 -10 -7 -10 -18
0 -12 11 -7 18 26 47 22 19 34 34 28 35 -9 0 -13 20 -13 65 0 61 -9 80 -26 54
-4 -8 -9 -7 -15 2 -6 10 -1 21 18 36 23 19 26 28 24 71 -1 34 3 53 13 62 24
19 26 4 23 -207 l-2 -192 32 34 c18 19 33 39 33 43 0 5 10 14 23 20 17 8 18
11 5 11 -24 1 -48 52 -48 101 0 33 6 48 29 71 19 19 24 29 15 29 -8 0 -22 16
-30 35 -28 69 -12 121 46 145 27 11 33 10 50 -5 29 -26 29 -130 0 -160 l-20
-22 20 -18 c16 -14 20 -30 20 -79 -1 -61 -12 -88 -40 -98 -9 -3 1 -10 26 -18
36 -11 45 -10 65 4 19 13 20 16 6 16 -23 0 -37 39 -37 101 0 38 5 55 23 72
l22 22 -22 22 c-34 32 -33 124 1 158 23 22 23 24 4 28 -28 8 -11 30 18 24 13
-2 29 2 35 9 16 20 43 18 35 -2 -4 -9 -1 -24 6 -33 11 -14 11 -14 -3 -3 -9 7
-25 9 -34 5 -17 -6 -16 -7 4 -14 27 -10 41 -47 41 -105 0 -24 5 -44 11 -44 5
0 7 -5 3 -11 -4 -8 -9 -8 -13 -1 -4 6 -15 1 -27 -13 -22 -24 -22 -24 -2 -37
45 -30 28 -177 -20 -178 -13 -1 -11 -4 8 -14 23 -13 25 -12 36 21 7 20 29 52
48 72 20 20 36 43 36 51 0 11 -3 11 -12 2 -15 -15 -38 -16 -38 -1 0 6 10 19
22 28 18 15 21 29 22 94 1 73 0 76 -20 71 -16 -4 -23 0 -27 15 -3 12 -1 19 5
15 13 -8 59 36 50 50 -17 28 -10 56 14 56 11 0 15 -9 14 -32z m-232 -43 c-3
-3 -9 2 -12 12 -6 14 -5 15 5 6 7 -7 10 -15 7 -18z m437 15 c8 -13 -5 -13 -25
0 -13 8 -13 10 2 10 9 0 20 -4 23 -10z m-261 -13 c-4 -12 -44 -22 -44 -11 0 4
30 18 47 23 1 1 0 -5 -3 -12z m276 -21 c0 -2 -7 -7 -16 -10 -8 -3 -12 -2 -9 4
6 10 25 14 25 6z m130 -40 c0 -3 -4 -8 -10 -11 -5 -3 -10 -1 -10 4 0 6 5 11
10 11 6 0 10 -2 10 -4z m-750 -20 c0 -3 -4 -8 -10 -11 -5 -3 -10 -1 -10 4 0 6
5 11 10 11 6 0 10 -2 10 -4z m430 -36 c0 -5 -5 -10 -11 -10 -5 0 -7 5 -4 10 3
6 8 10 11 10 2 0 4 -4 4 -10z m-529 -53 c-10 -9 -11 -8 -5 6 3 10 9 15 12 12
3 -3 0 -11 -7 -18z m429 -18 c0 -5 -4 -9 -10 -9 -5 0 -10 7 -10 16 0 8 5 12
10 9 6 -3 10 -10 10 -16z m-163 -11 c-3 -8 -6 -5 -6 6 -1 11 2 17 5 13 3 -3 4
-12 1 -19z m280 0 c-3 -8 -6 -5 -6 6 -1 11 2 17 5 13 3 -3 4 -12 1 -19z m-134
-28 c-3 -11 -7 -20 -9 -20 -2 0 -4 9 -4 20 0 11 4 20 9 20 5 0 7 -9 4 -20z
m581 -43 c-5 -44 -3 -56 16 -77 14 -17 23 -21 26 -12 9 19 24 14 24 -8 0 -11
-5 -20 -12 -20 -6 0 -2 -9 9 -19 40 -38 39 -162 -2 -177 -13 -6 -12 -9 6 -22
18 -12 21 -22 16 -59 -7 -64 -27 -80 -27 -22 0 41 -13 69 -32 69 -8 0 -28 -66
-28 -95 1 -11 7 -29 15 -39 12 -16 17 -17 30 -6 25 21 19 -11 -10 -54 -14 -21
-32 -53 -40 -72 -8 -20 -19 -33 -23 -30 -15 9 4 89 25 105 18 14 18 15 -4 37
-34 34 -33 125 1 159 22 22 23 25 6 30 -21 7 -30 34 -30 98 0 38 5 53 26 74
24 24 24 25 5 20 -12 -3 -19 -1 -15 4 3 6 1 16 -6 24 -17 20 1 145 21 145 5 0
7 -22 3 -53z m-1041 -53 c-3 -18 -13 -41 -23 -51 -17 -17 -17 -19 0 -38 18
-21 44 -109 29 -99 -5 3 -9 -4 -9 -16 0 -31 -18 -60 -38 -61 -13 0 -12 -3 6
-11 12 -6 22 -16 22 -22 0 -6 4 -6 9 2 4 7 7 -18 6 -58 -1 -58 -6 -75 -23 -93
-25 -24 -42 -15 -24 13 17 27 15 102 -3 126 -14 18 -16 18 -29 1 -13 -17 -14
-16 -19 3 -3 11 -1 23 5 26 6 4 6 10 -1 17 -6 6 -11 22 -11 37 l0 25 19 -25
c29 -37 51 -13 51 54 0 55 -13 78 -38 69 -22 -9 -7 48 18 66 14 9 20 25 20 53
0 22 5 49 12 61 11 21 12 21 19 -12 4 -19 5 -49 2 -67z m51 -10 c3 -8 2 -12
-4 -9 -6 3 -10 10 -10 16 0 14 7 11 14 -7z m89 -29 c-7 -21 -12 -19 -10 4 0
11 5 18 9 15 4 -3 5 -11 1 -19z m864 -52 c-3 -10 -5 -4 -5 12 0 17 2 24 5 18
2 -7 2 -21 0 -30z m-962 17 c3 -5 2 -10 -4 -10 -5 0 -13 5 -16 10 -3 6 -2 10
4 10 5 0 13 -4 16 -10z m109 2 c3 -5 -1 -9 -9 -9 -8 0 -15 4 -15 9 0 4 4 8 9
8 6 0 12 -4 15 -8z m726 -14 c0 -18 -2 -20 -9 -8 -6 8 -7 18 -5 22 9 14 14 9
14 -14z m117 -50 c-3 -8 -6 -5 -6 6 -1 11 2 17 5 13 3 -3 4 -12 1 -19z m-35
-103 c0 -50 -1 -165 -1 -257 -1 -142 -3 -168 -16 -168 -15 0 -21 51 -15 120 2
25 2 25 -19 6 -20 -18 -21 -18 -28 0 -4 11 -2 19 6 22 18 6 51 44 46 53 -3 4
-6 37 -6 74 -1 48 -4 63 -13 57 -6 -5 -22 -13 -35 -17 -21 -6 -19 -2 14 34 37
40 38 43 36 107 -2 58 0 65 15 62 15 -3 17 -15 16 -93z m-81 -15 c5 0 9 -5 9
-11 0 -8 -5 -8 -15 1 -10 8 -14 27 -13 54 l1 41 4 -42 c2 -24 8 -43 14 -43z
m119 20 c0 -5 -2 -10 -4 -10 -3 0 -8 5 -11 10 -3 6 -1 10 4 10 6 0 11 -4 11
-10z m-958 -52 c-7 -7 -12 -8 -12 -2 0 14 12 26 19 19 2 -3 -1 -11 -7 -17z
m489 -18 c18 -10 19 -24 19 -276 -1 -245 -2 -265 -18 -262 -14 3 -17 14 -17
60 0 56 0 57 -22 43 -37 -25 -36 2 2 36 25 23 32 36 25 44 -5 7 -8 37 -6 68 5
61 4 62 -25 47 -33 -18 -23 20 13 50 21 18 28 29 20 34 -7 4 -12 2 -12 -3 0
-6 -5 -11 -11 -11 -8 0 -8 5 1 15 15 18 25 139 11 130 -12 -7 -24 12 -16 25 8
13 12 12 36 0z m349 -4 c0 -3 -4 -8 -10 -11 -5 -3 -10 -1 -10 4 0 6 5 11 10
11 6 0 10 -2 10 -4z m-935 -47 c10 -30 2 -32 -12 -3 -6 13 -7 24 -3 24 5 0 12
-9 15 -21z m95 -14 c7 -9 8 -15 2 -15 -5 0 -12 7 -16 15 -3 8 -4 15 -2 15 2 0
9 -7 16 -15z m730 -5 c0 -5 -5 -10 -11 -10 -5 0 -7 5 -4 10 3 6 8 10 11 10 2
0 4 -4 4 -10z m-99 -37 c-12 -20 -14 -14 -5 12 4 9 9 14 11 11 3 -2 0 -13 -6
-23z m-723 -8 c-3 -3 -9 2 -12 12 -6 14 -5 15 5 6 7 -7 10 -15 7 -18z m837 15
c-3 -5 -12 -10 -18 -10 -7 0 -6 4 3 10 19 12 23 12 15 0z m-42 -25 c-3 -9 -8
-14 -10 -11 -3 3 -2 9 2 15 9 16 15 13 8 -4z m-148 -15 c3 -5 1 -10 -4 -10 -6
0 -11 5 -11 10 0 6 2 10 4 10 3 0 8 -4 11 -10z m188 3 c-7 -2 -19 -2 -25 0 -7
3 -2 5 12 5 14 0 19 -2 13 -5z m-773 -33 c0 -5 -2 -10 -4 -10 -3 0 -8 5 -11
10 -3 6 -1 10 4 10 6 0 11 -4 11 -10z m576 -32 c-6 -23 -12 -35 -14 -26 -3 14
14 68 21 68 2 0 -1 -19 -7 -42z m154 7 c0 -5 -5 -3 -10 5 -5 8 -10 20 -10 25
0 6 5 3 10 -5 5 -8 10 -19 10 -25z m-750 -5 c7 -16 16 -30 21 -30 5 0 9 -4 9
-10 0 -21 -26 -8 -42 21 -20 34 -23 49 -9 49 5 0 14 -13 21 -30z m1010 14 c0
-8 -5 -12 -10 -9 -6 4 -8 11 -5 16 9 14 15 11 15 -7z m-955 -92 c-3 -3 -11 0
-18 7 -9 10 -8 11 6 5 10 -3 15 -9 12 -12z m412 -4 c-3 -8 -6 -5 -6 6 -1 11 2
17 5 13 3 -3 4 -12 1 -19z m453 8 c0 -2 -7 -7 -16 -10 -8 -3 -12 -2 -9 4 6 10
25 14 25 6z m-846 -32 c9 -24 7 -27 -9 -10 -17 17 -19 26 -6 26 5 0 12 -7 15
-16z m334 -52 c-2 -4 7 -18 20 -32 19 -21 22 -34 20 -80 -3 -47 -6 -55 -22
-55 -18 0 -20 6 -17 56 2 42 -2 59 -14 69 -26 22 -48 -13 -42 -68 4 -36 2 -42
-12 -40 -20 4 -20 83 0 119 7 13 12 27 11 32 -1 4 12 7 28 7 17 0 29 -3 28 -8z
m52 -6 c0 -3 -4 -8 -10 -11 -5 -3 -10 -1 -10 4 0 6 5 11 10 11 6 0 10 -2 10
-4z m127 -28 c-3 -7 -5 -2 -5 12 0 14 2 19 5 13 2 -7 2 -19 0 -25z m336 7
c-10 -7 -20 -12 -21 -10 -7 7 23 33 31 28 5 -3 0 -11 -10 -18z m-423 5 c0 -5
-7 -10 -15 -10 -8 0 -15 -5 -15 -12 0 -6 -3 -8 -7 -4 -5 4 1 14 11 22 23 17
26 17 26 4z m376 -36 c-4 -9 -9 -15 -11 -12 -3 3 -3 13 1 22 4 9 9 15 11 12 3
-3 3 -13 -1 -22z m-477 -28 c-3 -3 -11 5 -18 17 -13 21 -12 21 5 5 10 -10 16
-20 13 -22z m-99 -22 c0 -26 -17 -33 -26 -9 -8 20 3 48 16 40 5 -3 10 -17 10
-31z m87 -31 c-3 -10 -5 -4 -5 12 0 17 2 24 5 18 2 -7 2 -21 0 -30z m403 28
c0 -5 -9 -11 -20 -14 -11 -3 -20 -1 -20 3 0 5 8 11 18 13 9 3 18 5 20 6 1 0 2
-3 2 -8z m-323 -48 c-3 -10 -5 -2 -5 17 0 19 2 27 5 18 2 -10 2 -26 0 -35z"/>
<path d="M1028 1519 c-24 -13 -25 -110 -3 -129 25 -21 45 5 45 59 0 57 -17 85
-42 70z m22 -30 c0 -6 -4 -7 -10 -4 -5 3 -10 11 -10 16 0 6 5 7 10 4 6 -3 10
-11 10 -16z"/>
<path d="M1166 1515 c-30 -31 -14 -135 22 -135 15 0 22 26 22 80 0 56 -19 80
-44 55z m24 -19 c0 -3 -4 -8 -10 -11 -5 -3 -10 -1 -10 4 0 6 5 11 10 11 6 0
10 -2 10 -4z m10 -76 c0 -5 -4 -10 -10 -10 -5 0 -10 5 -10 10 0 6 5 10 10 10
6 0 10 -4 10 -10z"/>
<path d="M1450 1504 c-14 -36 -12 -87 4 -109 22 -30 46 -3 46 52 0 74 -31 109
-50 57z"/>
<path d="M1533 1343 c-18 -7 -16 -23 3 -23 8 0 12 5 9 10 -3 6 -2 10 4 10 5 0
13 -4 16 -10 3 -5 1 -10 -5 -10 -6 0 -8 -5 -5 -10 4 -7 17 -4 35 6 28 17 67
13 55 -6 -9 -14 8 -12 29 3 17 12 13 15 -39 25 -61 13 -82 14 -102 5z"/>
<path d="M1022 1318 c-18 -18 -15 -113 4 -129 14 -11 18 -10 30 6 19 26 18
100 -2 119 -19 19 -17 19 -32 4z m9 -31 c-10 -9 -11 -8 -5 6 3 10 9 15 12 12
3 -3 0 -11 -7 -18z"/>
<path d="M1171 1320 c-8 -4 -16 -30 -18 -57 -4 -38 -1 -53 12 -67 27 -27 45
-3 45 59 0 55 -15 80 -39 65z m22 -60 c3 -11 1 -18 -4 -14 -5 3 -9 12 -9 20 0
20 7 17 13 -6z m0 -45 c-3 -9 -8 -14 -10 -11 -3 3 -2 9 2 15 9 16 15 13 8 -4z"/>
<path d="M1450 1315 c-13 -15 -14 -14 35 -30 18 -5 20 16 3 33 -16 16 -23 15
-38 -3z"/>
<path d="M1534 1285 c3 -42 20 -50 56 -25 37 26 33 36 -8 22 -24 -8 -29 -7
-28 5 0 9 -4 18 -10 20 -6 2 -10 -7 -10 -22z"/>
<path d="M1401 1219 c-33 -7 -90 -53 -79 -64 3 -3 18 5 32 18 35 33 74 42 95
24 10 -9 24 -12 35 -8 38 14 -36 41 -83 30z"/>
<path d="M1375 1174 c-16 -12 -19 -25 -17 -70 2 -40 -1 -54 -9 -49 -8 5 -9 0
-4 -16 9 -30 24 -45 51 -53 20 -6 21 -4 14 33 -10 57 -1 99 28 121 17 14 20
20 9 20 -8 0 -17 7 -21 15 -7 19 -25 19 -51 -1z"/>
<path d="M1501 1161 c-11 -7 -10 -10 4 -18 10 -6 21 -28 25 -49 l8 -39 1 35
c1 39 -8 80 -18 80 -3 0 -12 -4 -20 -9z"/>
<path d="M1170 1125 c0 -2 10 -10 23 -16 20 -11 21 -11 8 4 -13 16 -31 23 -31
12z"/>
<path d="M1451 1113 c-10 -19 -9 -108 1 -118 4 -4 16 -4 27 0 18 5 21 14 21
59 0 66 -27 99 -49 59z"/>
<path d="M1018 1045 c-14 -8 -36 -35 -48 -61 -21 -42 -21 -49 -10 -87 l14 -42
6 38 c8 41 7 39 35 55 16 9 17 11 4 12 -26 0 -33 32 -12 48 32 24 53 33 53 24
0 -6 -9 -12 -21 -15 -12 -3 -19 -12 -17 -19 8 -24 33 -13 43 20 12 40 35 42
35 3 0 -28 -22 -61 -40 -61 -5 0 2 -11 15 -25 21 -20 25 -34 25 -80 0 -37 4
-55 13 -55 8 0 11 16 9 55 -3 46 0 58 20 78 22 22 23 25 7 35 -9 6 -21 24 -27
41 -10 28 -9 31 9 31 12 0 19 -7 19 -19 0 -23 25 -47 35 -31 3 5 2 10 -3 10
-6 0 -9 8 -8 17 3 38 -102 57 -156 28z"/>
<path d="M1022 918 c-7 -7 -12 -31 -12 -55 0 -41 17 -63 49 -63 14 0 14 85 1
111 -12 22 -21 24 -38 7z"/>
<path d="M1450 704 c-14 -36 -12 -87 4 -109 23 -32 46 -3 46 59 0 71 -31 102
-50 50z m37 -56 c-3 -8 -6 -5 -6 6 -1 11 2 17 5 13 3 -3 4 -12 1 -19z"/>
<path d="M1872 1121 c-16 -10 -28 -91 -13 -91 7 0 9 -5 6 -10 -7 -11 12 -40
25 -40 14 0 31 66 26 97 -2 15 -5 31 -5 34 -2 11 -27 18 -39 10z"/>
<path d="M890 1617 c-27 -14 -35 -36 -26 -73 8 -31 48 -41 81 -20 31 20 32 54
5 84 -24 25 -27 26 -60 9z m36 -42 c11 -27 -1 -39 -19 -21 -17 17 -15 36 4 36
5 0 12 -7 15 -15z"/>
<path d="M1744 1575 c-23 -24 -24 -26 -9 -55 19 -37 52 -57 69 -40 8 8 7 14
-4 20 -37 23 -44 29 -37 36 4 4 19 -3 33 -17 21 -20 27 -21 34 -9 15 23 12 45
-7 62 -33 28 -53 29 -79 3z"/>
<path d="M773 1565 c-3 -9 -3 -18 0 -22 10 -10 37 6 37 22 0 20 -29 20 -37 0z"/>
<path d="M803 1534 c-3 -9 6 -27 23 -45 31 -32 33 -33 54 -19 12 8 9 15 -20
45 -38 39 -48 42 -57 19z"/>
<path d="M1833 1488 c-30 -32 -34 -58 -9 -58 7 0 21 9 31 20 19 21 35 26 35
12 0 -5 -9 -18 -20 -30 -22 -24 -25 -38 -9 -48 14 -8 69 44 69 66 0 14 -48 70
-61 70 -3 0 -19 -15 -36 -32z"/>
<path d="M725 1499 c-10 -15 7 -59 22 -59 8 0 26 -9 40 -20 24 -19 27 -19 45
-4 27 25 24 48 -6 40 -14 -3 -28 0 -35 8 -15 18 -2 29 18 14 11 -8 11 -6 -2 7
-18 20 -73 29 -82 14z"/>
<path d="M686 1398 c-17 -24 -21 -58 -7 -58 5 0 16 10 25 23 16 22 16 22 4 -6
-10 -23 -9 -31 4 -44 22 -21 42 -12 62 28 21 42 21 42 -13 62 -39 23 -57 21
-75 -5z m60 -55 c-10 -10 -19 5 -10 18 6 11 8 11 12 0 2 -7 1 -15 -2 -18z"/>
<path d="M1940 1406 c0 -7 -11 -18 -25 -24 -29 -13 -34 -52 -10 -72 8 -7 15
-21 15 -31 0 -11 4 -19 9 -19 16 0 80 30 86 40 4 6 11 8 16 5 12 -8 24 24 13
35 -6 6 -30 0 -59 -15 -61 -30 -62 -30 -60 -4 2 26 25 41 42 27 18 -14 22 -9
25 31 3 30 0 34 -24 36 -18 2 -28 -1 -28 -9z"/>
<path d="M600 1302 c0 -10 12 -23 28 -29 25 -10 25 -11 5 -12 -23 -1 -63 -33
-63 -50 0 -5 22 -16 48 -24 26 -9 55 -19 64 -22 10 -4 17 1 21 14 4 17 -1 23
-26 30 -28 7 -30 9 -12 16 56 19 66 26 63 42 -2 9 -24 24 -53 34 -65 23 -75
23 -75 1z"/>
<path d="M2007 1266 c-3 -8 -19 -17 -36 -21 -30 -6 -41 -28 -22 -39 5 -4 22
-1 37 4 19 8 30 8 38 0 15 -15 26 -12 27 8 0 10 3 12 6 5 6 -17 33 -17 33 0 0
36 -72 72 -83 43z"/>
<path d="M2070 1183 c0 -12 -3 -14 -8 -6 -10 15 -102 -5 -102 -23 0 -22 18
-25 62 -13 24 6 50 12 58 14 21 3 26 45 6 45 -9 0 -16 -8 -16 -17z"/>
<path d="M1991 1106 c-19 -22 -10 -80 12 -84 16 -3 18 1 12 28 -6 29 -5 31 17
28 18 -2 22 -8 20 -26 -3 -18 1 -23 15 -20 46 9 13 88 -36 88 -16 0 -34 -6
-40 -14z"/>
<path d="M591 1081 c-26 -26 -27 -55 -1 -81 41 -41 90 -10 90 57 0 26 -4 33
-19 33 -11 0 -26 3 -34 6 -9 3 -25 -4 -36 -15z m56 -43 c-3 -7 -5 -2 -5 12 0
14 2 19 5 13 2 -7 2 -19 0 -25z"/>
<path d="M1986 995 c-3 -9 -6 -32 -6 -51 0 -34 0 -34 45 -34 48 0 65 16 65 64
0 36 -30 35 -31 -1 l-1 -28 -7 30 c-5 23 -12 31 -32 33 -17 2 -29 -3 -33 -13z
m39 -35 c3 -5 1 -10 -4 -10 -6 0 -11 5 -11 10 0 6 2 10 4 10 3 0 8 -4 11 -10z"/>
<path d="M587 963 c-13 -12 -7 -62 9 -77 8 -9 24 -16 35 -16 25 0 62 38 55 57
-3 8 -6 21 -6 29 0 8 -9 14 -20 14 -22 0 -26 -10 -10 -26 14 -14 -5 -38 -24
-31 -9 4 -16 18 -16 32 0 24 -10 32 -23 18z"/>
<path d="M1975 873 c-9 -8 -15 -22 -13 -31 4 -20 28 -28 28 -9 0 22 37 10 43
-14 3 -10 12 -19 21 -19 10 0 13 6 9 16 -4 11 -1 15 13 12 25 -4 30 28 7 40
-37 19 -92 21 -108 5z"/>
<path d="M608 848 c-37 -8 -48 -15 -48 -29 0 -10 7 -19 15 -19 8 0 15 4 15 8
0 5 12 7 28 5 36 -6 82 12 82 32 0 17 -21 18 -92 3z"/>
<path d="M1950 793 c0 -16 13 -23 61 -37 33 -9 64 -14 70 -11 21 13 7 31 -33
43 -92 25 -98 26 -98 5z"/>
<path d="M672 785 c-17 -8 -32 -10 -32 -5 0 6 -7 10 -15 10 -8 0 -15 -6 -15
-12 0 -9 -3 -8 -10 2 -7 11 -12 12 -21 3 -9 -9 -9 -17 3 -35 18 -27 60 -34 78
-13 7 8 23 15 36 15 17 0 24 6 24 19 0 28 -10 31 -48 16z"/>
<path d="M1926 728 c-22 -32 -20 -64 6 -82 30 -21 43 -20 68 6 26 29 26 63 -2
82 -31 22 -54 20 -72 -6z m53 -27 c7 -5 10 -14 7 -20 -8 -13 -46 3 -46 19 0
12 20 13 39 1z"/>
<path d="M708 715 c-15 -7 -36 -11 -48 -8 -15 4 -20 1 -20 -13 0 -16 -2 -17
-10 -4 -7 12 -12 12 -21 3 -10 -10 -9 -17 6 -33 24 -27 45 -25 94 7 43 28 45
31 33 50 -6 10 -14 9 -34 -2z"/>
<path d="M699 631 c-16 -16 -29 -39 -29 -51 0 -27 43 -70 70 -70 25 0 80 51
80 75 0 21 -54 75 -75 75 -9 0 -30 -13 -46 -29z m66 -61 c-22 -24 -43 -26 -52
-3 -4 10 2 23 17 35 21 17 25 17 39 4 13 -14 13 -18 -4 -36z"/>
<path d="M1873 634 c-5 -15 0 -21 36 -43 8 -5 11 -14 7 -20 -5 -8 -16 -5 -37
10 -22 15 -34 18 -41 11 -16 -16 -4 -36 36 -57 l37 -20 29 35 c16 19 30 38 30
41 0 7 -76 59 -85 59 -3 0 -8 -7 -12 -16z"/>
<path d="M996 387 c3 -10 9 -15 12 -12 3 3 0 11 -7 18 -10 9 -11 8 -5 -6z"/>
<path d="M1668 383 c7 -3 16 -2 19 1 4 3 -2 6 -13 5 -11 0 -14 -3 -6 -6z"/>
<path d="M1713 372 c20 -22 22 -53 5 -72 -11 -12 -10 -12 5 -1 21 17 22 54 1
75 -22 22 -31 20 -11 -2z"/>
<path d="M1099 343 c-13 -16 -12 -17 4 -4 16 13 21 21 13 21 -2 0 -10 -8 -17
-17z"/>
<path d="M1270 320 c-9 -6 -10 -10 -3 -10 6 0 15 5 18 10 8 12 4 12 -15 0z"/>
<path d="M1541 320 c0 -8 4 -24 9 -35 5 -13 9 -14 9 -5 0 8 -4 24 -9 35 -5 13
-9 14 -9 5z"/>
<path d="M975 310 c-3 -6 1 -7 9 -4 18 7 21 14 7 14 -6 0 -13 -4 -16 -10z"/>
<path d="M1153 308 c-19 -25 -21 -46 -7 -67 8 -11 19 -21 24 -21 12 0 40 29
40 42 0 6 -9 0 -20 -13 -19 -23 -21 -23 -34 -6 -19 25 -6 60 25 68 22 6 22 7
3 8 -12 1 -26 -5 -31 -11z"/>
<path d="M1377 293 c10 -18 20 -28 22 -22 2 6 -6 21 -19 33 l-21 21 18 -32z"/>
<path d="M1451 260 c0 -30 3 -61 8 -68 4 -7 6 13 4 45 -6 79 -11 89 -12 23z"/>
<path d="M1072 265 c0 -16 2 -22 5 -12 2 9 2 23 0 30 -3 6 -5 -1 -5 -18z"/>
<path d="M1263 245 c-3 -9 -3 -18 -1 -21 3 -3 8 4 11 16 6 23 -1 27 -10 5z"/>
<path d="M1291 224 c0 -11 3 -14 6 -6 3 7 2 16 -1 19 -3 4 -6 -2 -5 -13z"/>
<path d="M1351 214 c0 -16 3 -23 6 -16 3 8 11 5 25 -10 16 -19 15 -16 -3 12
-12 19 -24 37 -26 39 -2 2 -3 -9 -2 -25z"/>
<path d="M1511 204 c0 -11 3 -14 6 -6 3 7 2 16 -1 19 -3 4 -6 -2 -5 -13z"/>
</g>
</svg>
